<?xml version="1.0" encoding="utf-8"?>
<svg xmlns="http://www.w3.org/2000/svg" xmlns:xlink="http://www.w3.org/1999/xlink" width="600" height="400" viewBox="0 0 2400 1600">
<defs>
  <clipPath id="clip650">
    <rect x="0" y="0" width="2400" height="1600"/>
  </clipPath>
</defs>
<path clip-path="url(#clip650)" d="M0 1600 L2400 1600 L2400 8.88178e-14 L0 8.88178e-14  Z" fill="#ffffff" fill-rule="evenodd" fill-opacity="1"/>
<defs>
  <clipPath id="clip651">
    <rect x="480" y="0" width="1681" height="1600"/>
  </clipPath>
</defs>
<path clip-path="url(#clip650)" d="M178.867 1486.45 L2352.76 1486.45 L2352.76 47.2441 L178.867 47.2441  Z" fill="#ffffff" fill-rule="evenodd" fill-opacity="1"/>
<defs>
  <clipPath id="clip652">
    <rect x="178" y="47" width="2175" height="1440"/>
  </clipPath>
</defs>
<polyline clip-path="url(#clip652)" style="stroke:#000000; stroke-linecap:round; stroke-linejoin:round; stroke-width:2; stroke-opacity:0.1; fill:none" points="505.016,1486.45 505.016,47.2441 "/>
<polyline clip-path="url(#clip652)" style="stroke:#000000; stroke-linecap:round; stroke-linejoin:round; stroke-width:2; stroke-opacity:0.1; fill:none" points="835.797,1486.45 835.797,47.2441 "/>
<polyline clip-path="url(#clip652)" style="stroke:#000000; stroke-linecap:round; stroke-linejoin:round; stroke-width:2; stroke-opacity:0.1; fill:none" points="1166.58,1486.45 1166.58,47.2441 "/>
<polyline clip-path="url(#clip652)" style="stroke:#000000; stroke-linecap:round; stroke-linejoin:round; stroke-width:2; stroke-opacity:0.1; fill:none" points="1497.36,1486.45 1497.36,47.2441 "/>
<polyline clip-path="url(#clip652)" style="stroke:#000000; stroke-linecap:round; stroke-linejoin:round; stroke-width:2; stroke-opacity:0.1; fill:none" points="1828.14,1486.45 1828.14,47.2441 "/>
<polyline clip-path="url(#clip652)" style="stroke:#000000; stroke-linecap:round; stroke-linejoin:round; stroke-width:2; stroke-opacity:0.1; fill:none" points="2158.92,1486.45 2158.92,47.2441 "/>
<polyline clip-path="url(#clip652)" style="stroke:#000000; stroke-linecap:round; stroke-linejoin:round; stroke-width:2; stroke-opacity:0.1; fill:none" points="178.867,1402.95 2352.76,1402.95 "/>
<polyline clip-path="url(#clip652)" style="stroke:#000000; stroke-linecap:round; stroke-linejoin:round; stroke-width:2; stroke-opacity:0.1; fill:none" points="178.867,955.074 2352.76,955.074 "/>
<polyline clip-path="url(#clip652)" style="stroke:#000000; stroke-linecap:round; stroke-linejoin:round; stroke-width:2; stroke-opacity:0.1; fill:none" points="178.867,507.202 2352.76,507.202 "/>
<polyline clip-path="url(#clip652)" style="stroke:#000000; stroke-linecap:round; stroke-linejoin:round; stroke-width:2; stroke-opacity:0.1; fill:none" points="178.867,59.3291 2352.76,59.3291 "/>
<polyline clip-path="url(#clip650)" style="stroke:#000000; stroke-linecap:round; stroke-linejoin:round; stroke-width:4; stroke-opacity:1; fill:none" points="178.867,1486.45 2352.76,1486.45 "/>
<polyline clip-path="url(#clip650)" style="stroke:#000000; stroke-linecap:round; stroke-linejoin:round; stroke-width:4; stroke-opacity:1; fill:none" points="505.016,1486.45 505.016,1467.55 "/>
<polyline clip-path="url(#clip650)" style="stroke:#000000; stroke-linecap:round; stroke-linejoin:round; stroke-width:4; stroke-opacity:1; fill:none" points="835.797,1486.45 835.797,1467.55 "/>
<polyline clip-path="url(#clip650)" style="stroke:#000000; stroke-linecap:round; stroke-linejoin:round; stroke-width:4; stroke-opacity:1; fill:none" points="1166.58,1486.45 1166.58,1467.55 "/>
<polyline clip-path="url(#clip650)" style="stroke:#000000; stroke-linecap:round; stroke-linejoin:round; stroke-width:4; stroke-opacity:1; fill:none" points="1497.36,1486.45 1497.36,1467.55 "/>
<polyline clip-path="url(#clip650)" style="stroke:#000000; stroke-linecap:round; stroke-linejoin:round; stroke-width:4; stroke-opacity:1; fill:none" points="1828.14,1486.45 1828.14,1467.55 "/>
<polyline clip-path="url(#clip650)" style="stroke:#000000; stroke-linecap:round; stroke-linejoin:round; stroke-width:4; stroke-opacity:1; fill:none" points="2158.92,1486.45 2158.92,1467.55 "/>
<path clip-path="url(#clip650)" d="M479.704 1544.91 L487.343 1544.91 L487.343 1518.55 L479.033 1520.21 L479.033 1515.95 L487.296 1514.29 L491.972 1514.29 L491.972 1544.91 L499.611 1544.91 L499.611 1548.85 L479.704 1548.85 L479.704 1544.91 Z" fill="#000000" fill-rule="nonzero" fill-opacity="1" /><path clip-path="url(#clip650)" d="M519.055 1517.37 Q515.444 1517.37 513.616 1520.93 Q511.81 1524.47 511.81 1531.6 Q511.81 1538.71 513.616 1542.27 Q515.444 1545.82 519.055 1545.82 Q522.69 1545.82 524.495 1542.27 Q526.324 1538.71 526.324 1531.6 Q526.324 1524.47 524.495 1520.93 Q522.69 1517.37 519.055 1517.37 M519.055 1513.66 Q524.866 1513.66 527.921 1518.27 Q531 1522.85 531 1531.6 Q531 1540.33 527.921 1544.94 Q524.866 1549.52 519.055 1549.52 Q513.245 1549.52 510.167 1544.94 Q507.111 1540.33 507.111 1531.6 Q507.111 1522.85 510.167 1518.27 Q513.245 1513.66 519.055 1513.66 Z" fill="#000000" fill-rule="nonzero" fill-opacity="1" /><path clip-path="url(#clip650)" d="M814.57 1544.91 L830.889 1544.91 L830.889 1548.85 L808.945 1548.85 L808.945 1544.91 Q811.607 1542.16 816.19 1537.53 Q820.797 1532.88 821.977 1531.53 Q824.223 1529.01 825.102 1527.27 Q826.005 1525.51 826.005 1523.82 Q826.005 1521.07 824.061 1519.33 Q822.139 1517.6 819.037 1517.6 Q816.838 1517.6 814.385 1518.36 Q811.954 1519.13 809.176 1520.68 L809.176 1515.95 Q812 1514.82 814.454 1514.24 Q816.908 1513.66 818.945 1513.66 Q824.315 1513.66 827.51 1516.35 Q830.704 1519.03 830.704 1523.52 Q830.704 1525.65 829.894 1527.57 Q829.107 1529.47 827 1532.07 Q826.422 1532.74 823.32 1535.95 Q820.218 1539.15 814.57 1544.91 Z" fill="#000000" fill-rule="nonzero" fill-opacity="1" /><path clip-path="url(#clip650)" d="M850.704 1517.37 Q847.093 1517.37 845.264 1520.93 Q843.459 1524.47 843.459 1531.6 Q843.459 1538.71 845.264 1542.27 Q847.093 1545.82 850.704 1545.82 Q854.338 1545.82 856.144 1542.27 Q857.972 1538.71 857.972 1531.6 Q857.972 1524.47 856.144 1520.93 Q854.338 1517.37 850.704 1517.37 M850.704 1513.66 Q856.514 1513.66 859.57 1518.27 Q862.648 1522.85 862.648 1531.6 Q862.648 1540.33 859.57 1544.94 Q856.514 1549.52 850.704 1549.52 Q844.894 1549.52 841.815 1544.94 Q838.76 1540.33 838.76 1531.6 Q838.76 1522.85 841.815 1518.27 Q844.894 1513.66 850.704 1513.66 Z" fill="#000000" fill-rule="nonzero" fill-opacity="1" /><path clip-path="url(#clip650)" d="M1155.42 1530.21 Q1158.78 1530.93 1160.65 1533.2 Q1162.55 1535.47 1162.55 1538.8 Q1162.55 1543.92 1159.03 1546.72 Q1155.51 1549.52 1149.03 1549.52 Q1146.86 1549.52 1144.54 1549.08 Q1142.25 1548.66 1139.79 1547.81 L1139.79 1543.29 Q1141.74 1544.43 1144.05 1545.01 Q1146.37 1545.58 1148.89 1545.58 Q1153.29 1545.58 1155.58 1543.85 Q1157.9 1542.11 1157.9 1538.8 Q1157.9 1535.75 1155.74 1534.03 Q1153.61 1532.3 1149.79 1532.3 L1145.77 1532.3 L1145.77 1528.45 L1149.98 1528.45 Q1153.43 1528.45 1155.26 1527.09 Q1157.09 1525.7 1157.09 1523.11 Q1157.09 1520.45 1155.19 1519.03 Q1153.31 1517.6 1149.79 1517.6 Q1147.87 1517.6 1145.67 1518.01 Q1143.48 1518.43 1140.84 1519.31 L1140.84 1515.14 Q1143.5 1514.4 1145.81 1514.03 Q1148.15 1513.66 1150.21 1513.66 Q1155.54 1513.66 1158.64 1516.09 Q1161.74 1518.5 1161.74 1522.62 Q1161.74 1525.49 1160.1 1527.48 Q1158.45 1529.45 1155.42 1530.21 Z" fill="#000000" fill-rule="nonzero" fill-opacity="1" /><path clip-path="url(#clip650)" d="M1181.42 1517.37 Q1177.8 1517.37 1175.98 1520.93 Q1174.17 1524.47 1174.17 1531.6 Q1174.17 1538.71 1175.98 1542.27 Q1177.8 1545.82 1181.42 1545.82 Q1185.05 1545.82 1186.85 1542.27 Q1188.68 1538.71 1188.68 1531.6 Q1188.68 1524.47 1186.85 1520.93 Q1185.05 1517.37 1181.42 1517.37 M1181.42 1513.66 Q1187.23 1513.66 1190.28 1518.27 Q1193.36 1522.85 1193.36 1531.6 Q1193.36 1540.33 1190.28 1544.94 Q1187.23 1549.52 1181.42 1549.52 Q1175.6 1549.52 1172.53 1544.94 Q1169.47 1540.33 1169.47 1531.6 Q1169.47 1522.85 1172.53 1518.27 Q1175.6 1513.66 1181.42 1513.66 Z" fill="#000000" fill-rule="nonzero" fill-opacity="1" /><path clip-path="url(#clip650)" d="M1485.53 1518.36 L1473.72 1536.81 L1485.53 1536.81 L1485.53 1518.36 M1484.3 1514.29 L1490.18 1514.29 L1490.18 1536.81 L1495.11 1536.81 L1495.11 1540.7 L1490.18 1540.7 L1490.18 1548.85 L1485.53 1548.85 L1485.53 1540.7 L1469.93 1540.7 L1469.93 1536.19 L1484.3 1514.29 Z" fill="#000000" fill-rule="nonzero" fill-opacity="1" /><path clip-path="url(#clip650)" d="M1512.84 1517.37 Q1509.23 1517.37 1507.4 1520.93 Q1505.6 1524.47 1505.6 1531.6 Q1505.6 1538.71 1507.4 1542.27 Q1509.23 1545.82 1512.84 1545.82 Q1516.48 1545.82 1518.28 1542.27 Q1520.11 1538.71 1520.11 1531.6 Q1520.11 1524.47 1518.28 1520.93 Q1516.48 1517.37 1512.84 1517.37 M1512.84 1513.66 Q1518.65 1513.66 1521.71 1518.27 Q1524.79 1522.85 1524.79 1531.6 Q1524.79 1540.33 1521.71 1544.94 Q1518.65 1549.52 1512.84 1549.52 Q1507.03 1549.52 1503.95 1544.94 Q1500.9 1540.33 1500.9 1531.6 Q1500.9 1522.85 1503.95 1518.27 Q1507.03 1513.66 1512.84 1513.66 Z" fill="#000000" fill-rule="nonzero" fill-opacity="1" /><path clip-path="url(#clip650)" d="M1802.84 1514.29 L1821.19 1514.29 L1821.19 1518.22 L1807.12 1518.22 L1807.12 1526.7 Q1808.14 1526.35 1809.16 1526.19 Q1810.18 1526 1811.19 1526 Q1816.98 1526 1820.36 1529.17 Q1823.74 1532.34 1823.74 1537.76 Q1823.74 1543.34 1820.27 1546.44 Q1816.8 1549.52 1810.48 1549.52 Q1808.3 1549.52 1806.03 1549.15 Q1803.79 1548.78 1801.38 1548.04 L1801.38 1543.34 Q1803.46 1544.47 1805.68 1545.03 Q1807.91 1545.58 1810.38 1545.58 Q1814.39 1545.58 1816.73 1543.48 Q1819.06 1541.37 1819.06 1537.76 Q1819.06 1534.15 1816.73 1532.04 Q1814.39 1529.94 1810.38 1529.94 Q1808.51 1529.94 1806.63 1530.35 Q1804.78 1530.77 1802.84 1531.65 L1802.84 1514.29 Z" fill="#000000" fill-rule="nonzero" fill-opacity="1" /><path clip-path="url(#clip650)" d="M1842.95 1517.37 Q1839.34 1517.37 1837.51 1520.93 Q1835.71 1524.47 1835.71 1531.6 Q1835.71 1538.71 1837.51 1542.27 Q1839.34 1545.82 1842.95 1545.82 Q1846.59 1545.82 1848.39 1542.27 Q1850.22 1538.71 1850.22 1531.6 Q1850.22 1524.47 1848.39 1520.93 Q1846.59 1517.37 1842.95 1517.37 M1842.95 1513.66 Q1848.76 1513.66 1851.82 1518.27 Q1854.9 1522.85 1854.9 1531.6 Q1854.9 1540.33 1851.82 1544.94 Q1848.76 1549.52 1842.95 1549.52 Q1837.14 1549.52 1834.06 1544.94 Q1831.01 1540.33 1831.01 1531.6 Q1831.01 1522.85 1834.06 1518.27 Q1837.14 1513.66 1842.95 1513.66 Z" fill="#000000" fill-rule="nonzero" fill-opacity="1" /><path clip-path="url(#clip650)" d="M2144.32 1529.7 Q2141.18 1529.7 2139.32 1531.86 Q2137.5 1534.01 2137.5 1537.76 Q2137.5 1541.49 2139.32 1543.66 Q2141.18 1545.82 2144.32 1545.82 Q2147.47 1545.82 2149.3 1543.66 Q2151.15 1541.49 2151.15 1537.76 Q2151.15 1534.01 2149.3 1531.86 Q2147.47 1529.7 2144.32 1529.7 M2153.61 1515.05 L2153.61 1519.31 Q2151.85 1518.48 2150.04 1518.04 Q2148.26 1517.6 2146.5 1517.6 Q2141.87 1517.6 2139.42 1520.72 Q2136.99 1523.85 2136.64 1530.17 Q2138 1528.15 2140.06 1527.09 Q2142.12 1526 2144.6 1526 Q2149.81 1526 2152.82 1529.17 Q2155.85 1532.32 2155.85 1537.76 Q2155.85 1543.08 2152.7 1546.3 Q2149.56 1549.52 2144.32 1549.52 Q2138.33 1549.52 2135.16 1544.94 Q2131.99 1540.33 2131.99 1531.6 Q2131.99 1523.41 2135.87 1518.55 Q2139.76 1513.66 2146.31 1513.66 Q2148.07 1513.66 2149.86 1514.01 Q2151.66 1514.36 2153.61 1515.05 Z" fill="#000000" fill-rule="nonzero" fill-opacity="1" /><path clip-path="url(#clip650)" d="M2173.91 1517.37 Q2170.3 1517.37 2168.47 1520.93 Q2166.66 1524.47 2166.66 1531.6 Q2166.66 1538.71 2168.47 1542.27 Q2170.3 1545.82 2173.91 1545.82 Q2177.54 1545.82 2179.35 1542.27 Q2181.18 1538.71 2181.18 1531.6 Q2181.18 1524.47 2179.35 1520.93 Q2177.54 1517.37 2173.91 1517.37 M2173.91 1513.66 Q2179.72 1513.66 2182.77 1518.27 Q2185.85 1522.85 2185.85 1531.6 Q2185.85 1540.33 2182.77 1544.94 Q2179.72 1549.52 2173.91 1549.52 Q2168.1 1549.52 2165.02 1544.94 Q2161.96 1540.33 2161.96 1531.6 Q2161.96 1522.85 2165.02 1518.27 Q2168.1 1513.66 2173.91 1513.66 Z" fill="#000000" fill-rule="nonzero" fill-opacity="1" /><polyline clip-path="url(#clip650)" style="stroke:#000000; stroke-linecap:round; stroke-linejoin:round; stroke-width:4; stroke-opacity:1; fill:none" points="178.867,1486.45 178.867,47.2441 "/>
<polyline clip-path="url(#clip650)" style="stroke:#000000; stroke-linecap:round; stroke-linejoin:round; stroke-width:4; stroke-opacity:1; fill:none" points="178.867,1402.95 197.764,1402.95 "/>
<polyline clip-path="url(#clip650)" style="stroke:#000000; stroke-linecap:round; stroke-linejoin:round; stroke-width:4; stroke-opacity:1; fill:none" points="178.867,955.074 197.764,955.074 "/>
<polyline clip-path="url(#clip650)" style="stroke:#000000; stroke-linecap:round; stroke-linejoin:round; stroke-width:4; stroke-opacity:1; fill:none" points="178.867,507.202 197.764,507.202 "/>
<polyline clip-path="url(#clip650)" style="stroke:#000000; stroke-linecap:round; stroke-linejoin:round; stroke-width:4; stroke-opacity:1; fill:none" points="178.867,59.3291 197.764,59.3291 "/>
<path clip-path="url(#clip650)" d="M51.9875 1403.4 L81.6633 1403.4 L81.6633 1407.33 L51.9875 1407.33 L51.9875 1403.4 Z" fill="#000000" fill-rule="nonzero" fill-opacity="1" /><path clip-path="url(#clip650)" d="M92.566 1416.29 L100.205 1416.29 L100.205 1389.93 L91.8947 1391.59 L91.8947 1387.33 L100.159 1385.67 L104.834 1385.67 L104.834 1416.29 L112.473 1416.29 L112.473 1420.23 L92.566 1420.23 L92.566 1416.29 Z" fill="#000000" fill-rule="nonzero" fill-opacity="1" /><path clip-path="url(#clip650)" d="M121.964 1385.67 L140.32 1385.67 L140.32 1389.6 L126.246 1389.6 L126.246 1398.07 Q127.265 1397.73 128.283 1397.56 Q129.302 1397.38 130.32 1397.38 Q136.107 1397.38 139.487 1400.55 Q142.867 1403.72 142.867 1409.14 Q142.867 1414.72 139.394 1417.82 Q135.922 1420.9 129.603 1420.9 Q127.427 1420.9 125.158 1420.53 Q122.913 1420.16 120.506 1419.42 L120.506 1414.72 Q122.589 1415.85 124.811 1416.41 Q127.033 1416.96 129.51 1416.96 Q133.515 1416.96 135.853 1414.86 Q138.191 1412.75 138.191 1409.14 Q138.191 1405.53 135.853 1403.42 Q133.515 1401.31 129.51 1401.31 Q127.635 1401.31 125.76 1401.73 Q123.908 1402.15 121.964 1403.03 L121.964 1385.67 Z" fill="#000000" fill-rule="nonzero" fill-opacity="1" /><path clip-path="url(#clip650)" d="M50.9921 955.526 L80.6679 955.526 L80.6679 959.461 L50.9921 959.461 L50.9921 955.526 Z" fill="#000000" fill-rule="nonzero" fill-opacity="1" /><path clip-path="url(#clip650)" d="M91.5706 968.419 L99.2095 968.419 L99.2095 942.053 L90.8993 943.72 L90.8993 939.461 L99.1632 937.794 L103.839 937.794 L103.839 968.419 L111.478 968.419 L111.478 972.354 L91.5706 972.354 L91.5706 968.419 Z" fill="#000000" fill-rule="nonzero" fill-opacity="1" /><path clip-path="url(#clip650)" d="M130.922 940.873 Q127.311 940.873 125.482 944.438 Q123.677 947.979 123.677 955.109 Q123.677 962.215 125.482 965.78 Q127.311 969.322 130.922 969.322 Q134.556 969.322 136.362 965.78 Q138.191 962.215 138.191 955.109 Q138.191 947.979 136.362 944.438 Q134.556 940.873 130.922 940.873 M130.922 937.169 Q136.732 937.169 139.788 941.776 Q142.867 946.359 142.867 955.109 Q142.867 963.836 139.788 968.442 Q136.732 973.025 130.922 973.025 Q125.112 973.025 122.033 968.442 Q118.978 963.836 118.978 955.109 Q118.978 946.359 122.033 941.776 Q125.112 937.169 130.922 937.169 Z" fill="#000000" fill-rule="nonzero" fill-opacity="1" /><path clip-path="url(#clip650)" d="M82.1494 507.653 L111.825 507.653 L111.825 511.588 L82.1494 511.588 L82.1494 507.653 Z" fill="#000000" fill-rule="nonzero" fill-opacity="1" /><path clip-path="url(#clip650)" d="M121.964 489.922 L140.32 489.922 L140.32 493.857 L126.246 493.857 L126.246 502.329 Q127.265 501.982 128.283 501.82 Q129.302 501.635 130.32 501.635 Q136.107 501.635 139.487 504.806 Q142.867 507.977 142.867 513.394 Q142.867 518.972 139.394 522.074 Q135.922 525.153 129.603 525.153 Q127.427 525.153 125.158 524.783 Q122.913 524.412 120.506 523.671 L120.506 518.972 Q122.589 520.107 124.811 520.662 Q127.033 521.218 129.51 521.218 Q133.515 521.218 135.853 519.111 Q138.191 517.005 138.191 513.394 Q138.191 509.783 135.853 507.676 Q133.515 505.57 129.51 505.57 Q127.635 505.57 125.76 505.986 Q123.908 506.403 121.964 507.283 L121.964 489.922 Z" fill="#000000" fill-rule="nonzero" fill-opacity="1" /><path clip-path="url(#clip650)" d="M130.922 45.1278 Q127.311 45.1278 125.482 48.6926 Q123.677 52.2342 123.677 59.3638 Q123.677 66.4702 125.482 70.035 Q127.311 73.5767 130.922 73.5767 Q134.556 73.5767 136.362 70.035 Q138.191 66.4702 138.191 59.3638 Q138.191 52.2342 136.362 48.6926 Q134.556 45.1278 130.922 45.1278 M130.922 41.4241 Q136.732 41.4241 139.788 46.0305 Q142.867 50.6138 142.867 59.3638 Q142.867 68.0906 139.788 72.6971 Q136.732 77.2804 130.922 77.2804 Q125.112 77.2804 122.033 72.6971 Q118.978 68.0906 118.978 59.3638 Q118.978 50.6138 122.033 46.0305 Q125.112 41.4241 130.922 41.4241 Z" fill="#000000" fill-rule="nonzero" fill-opacity="1" /><circle clip-path="url(#clip652)" cx="240.392" cy="158.27" r="14.4" fill="#009af9" fill-rule="evenodd" fill-opacity="1" stroke="#000000" stroke-opacity="1" stroke-width="3.2"/>
<circle clip-path="url(#clip652)" cx="306.548" cy="230.624" r="14.4" fill="#009af9" fill-rule="evenodd" fill-opacity="1" stroke="#000000" stroke-opacity="1" stroke-width="3.2"/>
<circle clip-path="url(#clip652)" cx="438.86" cy="378.05" r="14.4" fill="#009af9" fill-rule="evenodd" fill-opacity="1" stroke="#000000" stroke-opacity="1" stroke-width="3.2"/>
<circle clip-path="url(#clip652)" cx="703.484" cy="677.351" r="14.4" fill="#009af9" fill-rule="evenodd" fill-opacity="1" stroke="#000000" stroke-opacity="1" stroke-width="3.2"/>
<circle clip-path="url(#clip652)" cx="1232.73" cy="1276.07" r="14.4" fill="#009af9" fill-rule="evenodd" fill-opacity="1" stroke="#000000" stroke-opacity="1" stroke-width="3.2"/>
<circle clip-path="url(#clip652)" cx="2291.23" cy="1445.72" r="14.4" fill="#009af9" fill-rule="evenodd" fill-opacity="1" stroke="#000000" stroke-opacity="1" stroke-width="3.2"/>
<circle clip-path="url(#clip652)" cx="240.392" cy="98.4721" r="14.4" fill="#e26f46" fill-rule="evenodd" fill-opacity="1" stroke="#000000" stroke-opacity="1" stroke-width="3.2"/>
<circle clip-path="url(#clip652)" cx="306.548" cy="107.702" r="14.4" fill="#e26f46" fill-rule="evenodd" fill-opacity="1" stroke="#000000" stroke-opacity="1" stroke-width="3.2"/>
<circle clip-path="url(#clip652)" cx="438.86" cy="131.992" r="14.4" fill="#e26f46" fill-rule="evenodd" fill-opacity="1" stroke="#000000" stroke-opacity="1" stroke-width="3.2"/>
<circle clip-path="url(#clip652)" cx="703.484" cy="188.965" r="14.4" fill="#e26f46" fill-rule="evenodd" fill-opacity="1" stroke="#000000" stroke-opacity="1" stroke-width="3.2"/>
<circle clip-path="url(#clip652)" cx="1232.73" cy="311.859" r="14.4" fill="#e26f46" fill-rule="evenodd" fill-opacity="1" stroke="#000000" stroke-opacity="1" stroke-width="3.2"/>
<circle clip-path="url(#clip652)" cx="2291.23" cy="560.344" r="14.4" fill="#e26f46" fill-rule="evenodd" fill-opacity="1" stroke="#000000" stroke-opacity="1" stroke-width="3.2"/>
<circle clip-path="url(#clip652)" cx="240.392" cy="87.9763" r="14.4" fill="#3da44d" fill-rule="evenodd" fill-opacity="1" stroke="#000000" stroke-opacity="1" stroke-width="3.2"/>
<circle clip-path="url(#clip652)" cx="306.548" cy="88.0837" r="14.4" fill="#3da44d" fill-rule="evenodd" fill-opacity="1" stroke="#000000" stroke-opacity="1" stroke-width="3.2"/>
<circle clip-path="url(#clip652)" cx="438.86" cy="89.7468" r="14.4" fill="#3da44d" fill-rule="evenodd" fill-opacity="1" stroke="#000000" stroke-opacity="1" stroke-width="3.2"/>
<circle clip-path="url(#clip652)" cx="703.484" cy="93.2429" r="14.4" fill="#3da44d" fill-rule="evenodd" fill-opacity="1" stroke="#000000" stroke-opacity="1" stroke-width="3.2"/>
<circle clip-path="url(#clip652)" cx="1232.73" cy="100.958" r="14.4" fill="#3da44d" fill-rule="evenodd" fill-opacity="1" stroke="#000000" stroke-opacity="1" stroke-width="3.2"/>
<circle clip-path="url(#clip652)" cx="2291.23" cy="118.972" r="14.4" fill="#3da44d" fill-rule="evenodd" fill-opacity="1" stroke="#000000" stroke-opacity="1" stroke-width="3.2"/>
<path clip-path="url(#clip650)" d="M251.33 1438.47 L637.097 1438.47 L637.097 1231.11 L251.33 1231.11  Z" fill="#ffffff" fill-rule="evenodd" fill-opacity="1"/>
<polyline clip-path="url(#clip650)" style="stroke:#000000; stroke-linecap:round; stroke-linejoin:round; stroke-width:4; stroke-opacity:1; fill:none" points="251.33,1438.47 637.097,1438.47 637.097,1231.11 251.33,1231.11 251.33,1438.47 "/>
<circle clip-path="url(#clip650)" cx="347.947" cy="1282.95" r="20.48" fill="#009af9" fill-rule="evenodd" fill-opacity="1" stroke="#000000" stroke-opacity="1" stroke-width="4.55111"/>
<path clip-path="url(#clip650)" d="M463.476 1278.24 L463.476 1264.22 L467.735 1264.22 L467.735 1300.23 L463.476 1300.23 L463.476 1296.35 Q462.134 1298.66 460.073 1299.79 Q458.036 1300.91 455.166 1300.91 Q450.467 1300.91 447.504 1297.16 Q444.564 1293.41 444.564 1287.29 Q444.564 1281.18 447.504 1277.43 Q450.467 1273.68 455.166 1273.68 Q458.036 1273.68 460.073 1274.82 Q462.134 1275.93 463.476 1278.24 M448.962 1287.29 Q448.962 1291.99 450.884 1294.68 Q452.828 1297.34 456.208 1297.34 Q459.587 1297.34 461.532 1294.68 Q463.476 1291.99 463.476 1287.29 Q463.476 1282.6 461.532 1279.93 Q459.587 1277.25 456.208 1277.25 Q452.828 1277.25 450.884 1279.93 Q448.962 1282.6 448.962 1287.29 Z" fill="#000000" fill-rule="nonzero" fill-opacity="1" /><path clip-path="url(#clip650)" d="M477.064 1278.71 L506.74 1278.71 L506.74 1282.6 L477.064 1282.6 L477.064 1278.71 M477.064 1288.15 L506.74 1288.15 L506.74 1292.09 L477.064 1292.09 L477.064 1288.15 Z" fill="#000000" fill-rule="nonzero" fill-opacity="1" /><path clip-path="url(#clip650)" d="M526.832 1268.75 Q523.221 1268.75 521.393 1272.32 Q519.587 1275.86 519.587 1282.99 Q519.587 1290.1 521.393 1293.66 Q523.221 1297.2 526.832 1297.2 Q530.467 1297.2 532.272 1293.66 Q534.101 1290.1 534.101 1282.99 Q534.101 1275.86 532.272 1272.32 Q530.467 1268.75 526.832 1268.75 M526.832 1265.05 Q532.642 1265.05 535.698 1269.66 Q538.777 1274.24 538.777 1282.99 Q538.777 1291.72 535.698 1296.32 Q532.642 1300.91 526.832 1300.91 Q521.022 1300.91 517.943 1296.32 Q514.888 1291.72 514.888 1282.99 Q514.888 1274.24 517.943 1269.66 Q521.022 1265.05 526.832 1265.05 Z" fill="#000000" fill-rule="nonzero" fill-opacity="1" /><path clip-path="url(#clip650)" d="M546.994 1294.35 L551.878 1294.35 L551.878 1300.23 L546.994 1300.23 L546.994 1294.35 Z" fill="#000000" fill-rule="nonzero" fill-opacity="1" /><path clip-path="url(#clip650)" d="M562.11 1265.67 L580.466 1265.67 L580.466 1269.61 L566.392 1269.61 L566.392 1278.08 Q567.411 1277.73 568.429 1277.57 Q569.448 1277.39 570.466 1277.39 Q576.253 1277.39 579.633 1280.56 Q583.013 1283.73 583.013 1289.15 Q583.013 1294.73 579.54 1297.83 Q576.068 1300.91 569.749 1300.91 Q567.573 1300.91 565.304 1300.54 Q563.059 1300.16 560.652 1299.42 L560.652 1294.73 Q562.735 1295.86 564.957 1296.41 Q567.179 1296.97 569.656 1296.97 Q573.661 1296.97 575.999 1294.86 Q578.337 1292.76 578.337 1289.15 Q578.337 1285.54 575.999 1283.43 Q573.661 1281.32 569.656 1281.32 Q567.781 1281.32 565.906 1281.74 Q564.054 1282.16 562.11 1283.04 L562.11 1265.67 Z" fill="#000000" fill-rule="nonzero" fill-opacity="1" /><circle clip-path="url(#clip650)" cx="347.947" cy="1334.79" r="20.48" fill="#e26f46" fill-rule="evenodd" fill-opacity="1" stroke="#000000" stroke-opacity="1" stroke-width="4.55111"/>
<path clip-path="url(#clip650)" d="M463.476 1330.08 L463.476 1316.06 L467.735 1316.06 L467.735 1352.07 L463.476 1352.07 L463.476 1348.19 Q462.134 1350.5 460.073 1351.63 Q458.036 1352.75 455.166 1352.75 Q450.467 1352.75 447.504 1349 Q444.564 1345.25 444.564 1339.13 Q444.564 1333.02 447.504 1329.27 Q450.467 1325.52 455.166 1325.52 Q458.036 1325.52 460.073 1326.66 Q462.134 1327.77 463.476 1330.08 M448.962 1339.13 Q448.962 1343.83 450.884 1346.52 Q452.828 1349.18 456.208 1349.18 Q459.587 1349.18 461.532 1346.52 Q463.476 1343.83 463.476 1339.13 Q463.476 1334.44 461.532 1331.77 Q459.587 1329.09 456.208 1329.09 Q452.828 1329.09 450.884 1331.77 Q448.962 1334.44 448.962 1339.13 Z" fill="#000000" fill-rule="nonzero" fill-opacity="1" /><path clip-path="url(#clip650)" d="M477.064 1330.55 L506.74 1330.55 L506.74 1334.44 L477.064 1334.44 L477.064 1330.55 M477.064 1339.99 L506.74 1339.99 L506.74 1343.93 L477.064 1343.93 L477.064 1339.99 Z" fill="#000000" fill-rule="nonzero" fill-opacity="1" /><path clip-path="url(#clip650)" d="M526.832 1320.59 Q523.221 1320.59 521.393 1324.16 Q519.587 1327.7 519.587 1334.83 Q519.587 1341.94 521.393 1345.5 Q523.221 1349.04 526.832 1349.04 Q530.467 1349.04 532.272 1345.5 Q534.101 1341.94 534.101 1334.83 Q534.101 1327.7 532.272 1324.16 Q530.467 1320.59 526.832 1320.59 M526.832 1316.89 Q532.642 1316.89 535.698 1321.5 Q538.777 1326.08 538.777 1334.83 Q538.777 1343.56 535.698 1348.16 Q532.642 1352.75 526.832 1352.75 Q521.022 1352.75 517.943 1348.16 Q514.888 1343.56 514.888 1334.83 Q514.888 1326.08 517.943 1321.5 Q521.022 1316.89 526.832 1316.89 Z" fill="#000000" fill-rule="nonzero" fill-opacity="1" /><path clip-path="url(#clip650)" d="M546.994 1346.19 L551.878 1346.19 L551.878 1352.07 L546.994 1352.07 L546.994 1346.19 Z" fill="#000000" fill-rule="nonzero" fill-opacity="1" /><path clip-path="url(#clip650)" d="M562.874 1348.14 L570.513 1348.14 L570.513 1321.77 L562.202 1323.44 L562.202 1319.18 L570.466 1317.51 L575.142 1317.51 L575.142 1348.14 L582.781 1348.14 L582.781 1352.07 L562.874 1352.07 L562.874 1348.14 Z" fill="#000000" fill-rule="nonzero" fill-opacity="1" /><circle clip-path="url(#clip650)" cx="347.947" cy="1386.63" r="20.48" fill="#3da44d" fill-rule="evenodd" fill-opacity="1" stroke="#000000" stroke-opacity="1" stroke-width="4.55111"/>
<path clip-path="url(#clip650)" d="M463.476 1381.92 L463.476 1367.9 L467.735 1367.9 L467.735 1403.91 L463.476 1403.91 L463.476 1400.03 Q462.134 1402.34 460.073 1403.47 Q458.036 1404.59 455.166 1404.59 Q450.467 1404.59 447.504 1400.84 Q444.564 1397.09 444.564 1390.97 Q444.564 1384.86 447.504 1381.11 Q450.467 1377.36 455.166 1377.36 Q458.036 1377.36 460.073 1378.5 Q462.134 1379.61 463.476 1381.92 M448.962 1390.97 Q448.962 1395.67 450.884 1398.36 Q452.828 1401.02 456.208 1401.02 Q459.587 1401.02 461.532 1398.36 Q463.476 1395.67 463.476 1390.97 Q463.476 1386.28 461.532 1383.61 Q459.587 1380.93 456.208 1380.93 Q452.828 1380.93 450.884 1383.61 Q448.962 1386.28 448.962 1390.97 Z" fill="#000000" fill-rule="nonzero" fill-opacity="1" /><path clip-path="url(#clip650)" d="M477.064 1382.39 L506.74 1382.39 L506.74 1386.28 L477.064 1386.28 L477.064 1382.39 M477.064 1391.83 L506.74 1391.83 L506.74 1395.77 L477.064 1395.77 L477.064 1391.83 Z" fill="#000000" fill-rule="nonzero" fill-opacity="1" /><path clip-path="url(#clip650)" d="M526.832 1372.43 Q523.221 1372.43 521.393 1376 Q519.587 1379.54 519.587 1386.67 Q519.587 1393.78 521.393 1397.34 Q523.221 1400.88 526.832 1400.88 Q530.467 1400.88 532.272 1397.34 Q534.101 1393.78 534.101 1386.67 Q534.101 1379.54 532.272 1376 Q530.467 1372.43 526.832 1372.43 M526.832 1368.73 Q532.642 1368.73 535.698 1373.34 Q538.777 1377.92 538.777 1386.67 Q538.777 1395.4 535.698 1400 Q532.642 1404.59 526.832 1404.59 Q521.022 1404.59 517.943 1400 Q514.888 1395.4 514.888 1386.67 Q514.888 1377.92 517.943 1373.34 Q521.022 1368.73 526.832 1368.73 Z" fill="#000000" fill-rule="nonzero" fill-opacity="1" /><path clip-path="url(#clip650)" d="M546.994 1398.03 L551.878 1398.03 L551.878 1403.91 L546.994 1403.91 L546.994 1398.03 Z" fill="#000000" fill-rule="nonzero" fill-opacity="1" /><path clip-path="url(#clip650)" d="M572.064 1372.43 Q568.452 1372.43 566.624 1376 Q564.818 1379.54 564.818 1386.67 Q564.818 1393.78 566.624 1397.34 Q568.452 1400.88 572.064 1400.88 Q575.698 1400.88 577.503 1397.34 Q579.332 1393.78 579.332 1386.67 Q579.332 1379.54 577.503 1376 Q575.698 1372.43 572.064 1372.43 M572.064 1368.73 Q577.874 1368.73 580.929 1373.34 Q584.008 1377.92 584.008 1386.67 Q584.008 1395.4 580.929 1400 Q577.874 1404.59 572.064 1404.59 Q566.253 1404.59 563.175 1400 Q560.119 1395.4 560.119 1386.67 Q560.119 1377.92 563.175 1373.34 Q566.253 1368.73 572.064 1368.73 Z" fill="#000000" fill-rule="nonzero" fill-opacity="1" /><path clip-path="url(#clip650)" d="M593.036 1399.98 L600.674 1399.98 L600.674 1373.61 L592.364 1375.28 L592.364 1371.02 L600.628 1369.35 L605.304 1369.35 L605.304 1399.98 L612.943 1399.98 L612.943 1403.91 L593.036 1403.91 L593.036 1399.98 Z" fill="#000000" fill-rule="nonzero" fill-opacity="1" /></svg>
