<?xml version="1.0" encoding="utf-8"?>
<svg xmlns="http://www.w3.org/2000/svg" xmlns:xlink="http://www.w3.org/1999/xlink" width="600" height="400" viewBox="0 0 2400 1600">
<defs>
  <clipPath id="clip530">
    <rect x="0" y="0" width="2400" height="1600"/>
  </clipPath>
</defs>
<path clip-path="url(#clip530)" d="M0 1600 L2400 1600 L2400 8.88178e-14 L0 8.88178e-14  Z" fill="#ffffff" fill-rule="evenodd" fill-opacity="1"/>
<defs>
  <clipPath id="clip531">
    <rect x="480" y="0" width="1681" height="1600"/>
  </clipPath>
</defs>
<path clip-path="url(#clip530)" d="M193.936 1486.45 L2352.76 1486.45 L2352.76 47.2441 L193.936 47.2441  Z" fill="#ffffff" fill-rule="evenodd" fill-opacity="1"/>
<defs>
  <clipPath id="clip532">
    <rect x="193" y="47" width="2160" height="1440"/>
  </clipPath>
</defs>
<polyline clip-path="url(#clip532)" style="stroke:#000000; stroke-linecap:round; stroke-linejoin:round; stroke-width:2; stroke-opacity:0.1; fill:none" points="683.797,1486.45 683.797,47.2441 "/>
<polyline clip-path="url(#clip532)" style="stroke:#000000; stroke-linecap:round; stroke-linejoin:round; stroke-width:2; stroke-opacity:0.1; fill:none" points="1219.75,1486.45 1219.75,47.2441 "/>
<polyline clip-path="url(#clip532)" style="stroke:#000000; stroke-linecap:round; stroke-linejoin:round; stroke-width:2; stroke-opacity:0.1; fill:none" points="1755.7,1486.45 1755.7,47.2441 "/>
<polyline clip-path="url(#clip532)" style="stroke:#000000; stroke-linecap:round; stroke-linejoin:round; stroke-width:2; stroke-opacity:0.1; fill:none" points="2291.66,1486.45 2291.66,47.2441 "/>
<polyline clip-path="url(#clip532)" style="stroke:#000000; stroke-linecap:round; stroke-linejoin:round; stroke-width:2; stroke-opacity:0.1; fill:none" points="193.936,1356.92 2352.76,1356.92 "/>
<polyline clip-path="url(#clip532)" style="stroke:#000000; stroke-linecap:round; stroke-linejoin:round; stroke-width:2; stroke-opacity:0.1; fill:none" points="193.936,1068.6 2352.76,1068.6 "/>
<polyline clip-path="url(#clip532)" style="stroke:#000000; stroke-linecap:round; stroke-linejoin:round; stroke-width:2; stroke-opacity:0.1; fill:none" points="193.936,780.275 2352.76,780.275 "/>
<polyline clip-path="url(#clip532)" style="stroke:#000000; stroke-linecap:round; stroke-linejoin:round; stroke-width:2; stroke-opacity:0.1; fill:none" points="193.936,491.951 2352.76,491.951 "/>
<polyline clip-path="url(#clip532)" style="stroke:#000000; stroke-linecap:round; stroke-linejoin:round; stroke-width:2; stroke-opacity:0.1; fill:none" points="193.936,203.627 2352.76,203.627 "/>
<polyline clip-path="url(#clip530)" style="stroke:#000000; stroke-linecap:round; stroke-linejoin:round; stroke-width:4; stroke-opacity:1; fill:none" points="193.936,1486.45 2352.76,1486.45 "/>
<polyline clip-path="url(#clip530)" style="stroke:#000000; stroke-linecap:round; stroke-linejoin:round; stroke-width:4; stroke-opacity:1; fill:none" points="683.797,1486.45 683.797,1467.55 "/>
<polyline clip-path="url(#clip530)" style="stroke:#000000; stroke-linecap:round; stroke-linejoin:round; stroke-width:4; stroke-opacity:1; fill:none" points="1219.75,1486.45 1219.75,1467.55 "/>
<polyline clip-path="url(#clip530)" style="stroke:#000000; stroke-linecap:round; stroke-linejoin:round; stroke-width:4; stroke-opacity:1; fill:none" points="1755.7,1486.45 1755.7,1467.55 "/>
<polyline clip-path="url(#clip530)" style="stroke:#000000; stroke-linecap:round; stroke-linejoin:round; stroke-width:4; stroke-opacity:1; fill:none" points="2291.66,1486.45 2291.66,1467.55 "/>
<path clip-path="url(#clip530)" d="M674.075 1514.29 L692.432 1514.29 L692.432 1518.22 L678.358 1518.22 L678.358 1526.7 Q679.376 1526.35 680.395 1526.19 Q681.413 1526 682.432 1526 Q688.219 1526 691.598 1529.17 Q694.978 1532.34 694.978 1537.76 Q694.978 1543.34 691.506 1546.44 Q688.033 1549.52 681.714 1549.52 Q679.538 1549.52 677.27 1549.15 Q675.024 1548.78 672.617 1548.04 L672.617 1543.34 Q674.7 1544.47 676.922 1545.03 Q679.145 1545.58 681.621 1545.58 Q685.626 1545.58 687.964 1543.48 Q690.302 1541.37 690.302 1537.76 Q690.302 1534.15 687.964 1532.04 Q685.626 1529.94 681.621 1529.94 Q679.746 1529.94 677.871 1530.35 Q676.02 1530.77 674.075 1531.65 L674.075 1514.29 Z" fill="#000000" fill-rule="nonzero" fill-opacity="1" /><path clip-path="url(#clip530)" d="M1194.44 1544.91 L1202.08 1544.91 L1202.08 1518.55 L1193.77 1520.21 L1193.77 1515.95 L1202.03 1514.29 L1206.71 1514.29 L1206.71 1544.91 L1214.35 1544.91 L1214.35 1548.85 L1194.44 1548.85 L1194.44 1544.91 Z" fill="#000000" fill-rule="nonzero" fill-opacity="1" /><path clip-path="url(#clip530)" d="M1233.79 1517.37 Q1230.18 1517.37 1228.35 1520.93 Q1226.54 1524.47 1226.54 1531.6 Q1226.54 1538.71 1228.35 1542.27 Q1230.18 1545.82 1233.79 1545.82 Q1237.42 1545.82 1239.23 1542.27 Q1241.06 1538.71 1241.06 1531.6 Q1241.06 1524.47 1239.23 1520.93 Q1237.42 1517.37 1233.79 1517.37 M1233.79 1513.66 Q1239.6 1513.66 1242.66 1518.27 Q1245.73 1522.85 1245.73 1531.6 Q1245.73 1540.33 1242.66 1544.94 Q1239.6 1549.52 1233.79 1549.52 Q1227.98 1549.52 1224.9 1544.94 Q1221.85 1540.33 1221.85 1531.6 Q1221.85 1522.85 1224.9 1518.27 Q1227.98 1513.66 1233.79 1513.66 Z" fill="#000000" fill-rule="nonzero" fill-opacity="1" /><path clip-path="url(#clip530)" d="M1730.89 1544.91 L1738.53 1544.91 L1738.53 1518.55 L1730.22 1520.21 L1730.22 1515.95 L1738.48 1514.29 L1743.16 1514.29 L1743.16 1544.91 L1750.8 1544.91 L1750.8 1548.85 L1730.89 1548.85 L1730.89 1544.91 Z" fill="#000000" fill-rule="nonzero" fill-opacity="1" /><path clip-path="url(#clip530)" d="M1760.29 1514.29 L1778.64 1514.29 L1778.64 1518.22 L1764.57 1518.22 L1764.57 1526.7 Q1765.59 1526.35 1766.61 1526.19 Q1767.63 1526 1768.64 1526 Q1774.43 1526 1777.81 1529.17 Q1781.19 1532.34 1781.19 1537.76 Q1781.19 1543.34 1777.72 1546.44 Q1774.25 1549.52 1767.93 1549.52 Q1765.75 1549.52 1763.48 1549.15 Q1761.24 1548.78 1758.83 1548.04 L1758.83 1543.34 Q1760.91 1544.47 1763.13 1545.03 Q1765.36 1545.58 1767.83 1545.58 Q1771.84 1545.58 1774.18 1543.48 Q1776.51 1541.37 1776.51 1537.76 Q1776.51 1534.15 1774.18 1532.04 Q1771.84 1529.94 1767.83 1529.94 Q1765.96 1529.94 1764.08 1530.35 Q1762.23 1530.77 1760.29 1531.65 L1760.29 1514.29 Z" fill="#000000" fill-rule="nonzero" fill-opacity="1" /><path clip-path="url(#clip530)" d="M2270.43 1544.91 L2286.75 1544.91 L2286.75 1548.85 L2264.81 1548.85 L2264.81 1544.91 Q2267.47 1542.16 2272.05 1537.53 Q2276.66 1532.88 2277.84 1531.53 Q2280.08 1529.01 2280.96 1527.27 Q2281.87 1525.51 2281.87 1523.82 Q2281.87 1521.07 2279.92 1519.33 Q2278 1517.6 2274.9 1517.6 Q2272.7 1517.6 2270.25 1518.36 Q2267.81 1519.13 2265.04 1520.68 L2265.04 1515.95 Q2267.86 1514.82 2270.31 1514.24 Q2272.77 1513.66 2274.81 1513.66 Q2280.18 1513.66 2283.37 1516.35 Q2286.56 1519.03 2286.56 1523.52 Q2286.56 1525.65 2285.75 1527.57 Q2284.97 1529.47 2282.86 1532.07 Q2282.28 1532.74 2279.18 1535.95 Q2276.08 1539.15 2270.43 1544.91 Z" fill="#000000" fill-rule="nonzero" fill-opacity="1" /><path clip-path="url(#clip530)" d="M2306.56 1517.37 Q2302.95 1517.37 2301.12 1520.93 Q2299.32 1524.47 2299.32 1531.6 Q2299.32 1538.71 2301.12 1542.27 Q2302.95 1545.82 2306.56 1545.82 Q2310.2 1545.82 2312 1542.27 Q2313.83 1538.71 2313.83 1531.6 Q2313.83 1524.47 2312 1520.93 Q2310.2 1517.37 2306.56 1517.37 M2306.56 1513.66 Q2312.37 1513.66 2315.43 1518.27 Q2318.51 1522.85 2318.51 1531.6 Q2318.51 1540.33 2315.43 1544.94 Q2312.37 1549.52 2306.56 1549.52 Q2300.75 1549.52 2297.68 1544.94 Q2294.62 1540.33 2294.62 1531.6 Q2294.62 1522.85 2297.68 1518.27 Q2300.75 1513.66 2306.56 1513.66 Z" fill="#000000" fill-rule="nonzero" fill-opacity="1" /><polyline clip-path="url(#clip530)" style="stroke:#000000; stroke-linecap:round; stroke-linejoin:round; stroke-width:4; stroke-opacity:1; fill:none" points="193.936,1486.45 193.936,47.2441 "/>
<polyline clip-path="url(#clip530)" style="stroke:#000000; stroke-linecap:round; stroke-linejoin:round; stroke-width:4; stroke-opacity:1; fill:none" points="193.936,1356.92 212.834,1356.92 "/>
<polyline clip-path="url(#clip530)" style="stroke:#000000; stroke-linecap:round; stroke-linejoin:round; stroke-width:4; stroke-opacity:1; fill:none" points="193.936,1068.6 212.834,1068.6 "/>
<polyline clip-path="url(#clip530)" style="stroke:#000000; stroke-linecap:round; stroke-linejoin:round; stroke-width:4; stroke-opacity:1; fill:none" points="193.936,780.275 212.834,780.275 "/>
<polyline clip-path="url(#clip530)" style="stroke:#000000; stroke-linecap:round; stroke-linejoin:round; stroke-width:4; stroke-opacity:1; fill:none" points="193.936,491.951 212.834,491.951 "/>
<polyline clip-path="url(#clip530)" style="stroke:#000000; stroke-linecap:round; stroke-linejoin:round; stroke-width:4; stroke-opacity:1; fill:none" points="193.936,203.627 212.834,203.627 "/>
<path clip-path="url(#clip530)" d="M51.9875 1357.38 L81.6633 1357.38 L81.6633 1361.31 L51.9875 1361.31 L51.9875 1357.38 Z" fill="#000000" fill-rule="nonzero" fill-opacity="1" /><path clip-path="url(#clip530)" d="M90.5752 1339.64 L112.797 1339.64 L112.797 1341.63 L100.251 1374.2 L95.3669 1374.2 L107.172 1343.58 L90.5752 1343.58 L90.5752 1339.64 Z" fill="#000000" fill-rule="nonzero" fill-opacity="1" /><path clip-path="url(#clip530)" d="M121.918 1368.32 L126.802 1368.32 L126.802 1374.2 L121.918 1374.2 L121.918 1368.32 Z" fill="#000000" fill-rule="nonzero" fill-opacity="1" /><path clip-path="url(#clip530)" d="M137.033 1339.64 L155.39 1339.64 L155.39 1343.58 L141.316 1343.58 L141.316 1352.05 Q142.334 1351.7 143.353 1351.54 Q144.371 1351.36 145.39 1351.36 Q151.177 1351.36 154.556 1354.53 Q157.936 1357.7 157.936 1363.12 Q157.936 1368.69 154.464 1371.8 Q150.992 1374.87 144.672 1374.87 Q142.496 1374.87 140.228 1374.5 Q137.982 1374.13 135.575 1373.39 L135.575 1368.69 Q137.658 1369.83 139.881 1370.38 Q142.103 1370.94 144.58 1370.94 Q148.584 1370.94 150.922 1368.83 Q153.26 1366.73 153.26 1363.12 Q153.26 1359.5 150.922 1357.4 Q148.584 1355.29 144.58 1355.29 Q142.705 1355.29 140.83 1355.71 Q138.978 1356.13 137.033 1357 L137.033 1339.64 Z" fill="#000000" fill-rule="nonzero" fill-opacity="1" /><path clip-path="url(#clip530)" d="M50.9921 1069.05 L80.6679 1069.05 L80.6679 1072.99 L50.9921 1072.99 L50.9921 1069.05 Z" fill="#000000" fill-rule="nonzero" fill-opacity="1" /><path clip-path="url(#clip530)" d="M90.8067 1051.32 L109.163 1051.32 L109.163 1055.25 L95.0891 1055.25 L95.0891 1063.73 Q96.1076 1063.38 97.1261 1063.22 Q98.1447 1063.03 99.1632 1063.03 Q104.95 1063.03 108.33 1066.2 Q111.709 1069.38 111.709 1074.79 Q111.709 1080.37 108.237 1083.47 Q104.765 1086.55 98.4456 1086.55 Q96.2697 1086.55 94.0012 1086.18 Q91.7558 1085.81 89.3484 1085.07 L89.3484 1080.37 Q91.4317 1081.5 93.6539 1082.06 Q95.8761 1082.62 98.353 1082.62 Q102.358 1082.62 104.696 1080.51 Q107.033 1078.4 107.033 1074.79 Q107.033 1071.18 104.696 1069.07 Q102.358 1066.97 98.353 1066.97 Q96.478 1066.97 94.603 1067.38 Q92.7512 1067.8 90.8067 1068.68 L90.8067 1051.32 Z" fill="#000000" fill-rule="nonzero" fill-opacity="1" /><path clip-path="url(#clip530)" d="M120.922 1080 L125.807 1080 L125.807 1085.88 L120.922 1085.88 L120.922 1080 Z" fill="#000000" fill-rule="nonzero" fill-opacity="1" /><path clip-path="url(#clip530)" d="M145.992 1054.4 Q142.381 1054.4 140.552 1057.96 Q138.746 1061.5 138.746 1068.63 Q138.746 1075.74 140.552 1079.31 Q142.381 1082.85 145.992 1082.85 Q149.626 1082.85 151.431 1079.31 Q153.26 1075.74 153.26 1068.63 Q153.26 1061.5 151.431 1057.96 Q149.626 1054.4 145.992 1054.4 M145.992 1050.69 Q151.802 1050.69 154.857 1055.3 Q157.936 1059.88 157.936 1068.63 Q157.936 1077.36 154.857 1081.97 Q151.802 1086.55 145.992 1086.55 Q140.181 1086.55 137.103 1081.97 Q134.047 1077.36 134.047 1068.63 Q134.047 1059.88 137.103 1055.3 Q140.181 1050.69 145.992 1050.69 Z" fill="#000000" fill-rule="nonzero" fill-opacity="1" /><path clip-path="url(#clip530)" d="M51.9875 780.727 L81.6633 780.727 L81.6633 784.662 L51.9875 784.662 L51.9875 780.727 Z" fill="#000000" fill-rule="nonzero" fill-opacity="1" /><path clip-path="url(#clip530)" d="M95.7836 793.62 L112.103 793.62 L112.103 797.555 L90.1586 797.555 L90.1586 793.62 Q92.8206 790.866 97.4039 786.236 Q102.01 781.583 103.191 780.241 Q105.436 777.718 106.316 775.982 Q107.219 774.222 107.219 772.532 Q107.219 769.778 105.274 768.042 Q103.353 766.306 100.251 766.306 Q98.0521 766.306 95.5984 767.07 Q93.1678 767.833 90.3901 769.384 L90.3901 764.662 Q93.2141 763.528 95.6678 762.949 Q98.1215 762.37 100.159 762.37 Q105.529 762.37 108.723 765.056 Q111.918 767.741 111.918 772.232 Q111.918 774.361 111.108 776.282 Q110.321 778.181 108.214 780.773 Q107.635 781.444 104.534 784.662 Q101.432 787.856 95.7836 793.62 Z" fill="#000000" fill-rule="nonzero" fill-opacity="1" /><path clip-path="url(#clip530)" d="M121.918 791.676 L126.802 791.676 L126.802 797.555 L121.918 797.555 L121.918 791.676 Z" fill="#000000" fill-rule="nonzero" fill-opacity="1" /><path clip-path="url(#clip530)" d="M137.033 762.995 L155.39 762.995 L155.39 766.931 L141.316 766.931 L141.316 775.403 Q142.334 775.056 143.353 774.894 Q144.371 774.708 145.39 774.708 Q151.177 774.708 154.556 777.88 Q157.936 781.051 157.936 786.468 Q157.936 792.046 154.464 795.148 Q150.992 798.227 144.672 798.227 Q142.496 798.227 140.228 797.856 Q137.982 797.486 135.575 796.745 L135.575 792.046 Q137.658 793.18 139.881 793.736 Q142.103 794.292 144.58 794.292 Q148.584 794.292 150.922 792.185 Q153.26 790.079 153.26 786.468 Q153.26 782.856 150.922 780.75 Q148.584 778.644 144.58 778.644 Q142.705 778.644 140.83 779.06 Q138.978 779.477 137.033 780.356 L137.033 762.995 Z" fill="#000000" fill-rule="nonzero" fill-opacity="1" /><path clip-path="url(#clip530)" d="M100.76 477.75 Q97.1493 477.75 95.3206 481.315 Q93.515 484.857 93.515 491.986 Q93.515 499.093 95.3206 502.657 Q97.1493 506.199 100.76 506.199 Q104.395 506.199 106.2 502.657 Q108.029 499.093 108.029 491.986 Q108.029 484.857 106.2 481.315 Q104.395 477.75 100.76 477.75 M100.76 474.046 Q106.571 474.046 109.626 478.653 Q112.705 483.236 112.705 491.986 Q112.705 500.713 109.626 505.319 Q106.571 509.903 100.76 509.903 Q94.9502 509.903 91.8715 505.319 Q88.816 500.713 88.816 491.986 Q88.816 483.236 91.8715 478.653 Q94.9502 474.046 100.76 474.046 Z" fill="#000000" fill-rule="nonzero" fill-opacity="1" /><path clip-path="url(#clip530)" d="M120.922 503.352 L125.807 503.352 L125.807 509.231 L120.922 509.231 L120.922 503.352 Z" fill="#000000" fill-rule="nonzero" fill-opacity="1" /><path clip-path="url(#clip530)" d="M145.992 477.75 Q142.381 477.75 140.552 481.315 Q138.746 484.857 138.746 491.986 Q138.746 499.093 140.552 502.657 Q142.381 506.199 145.992 506.199 Q149.626 506.199 151.431 502.657 Q153.26 499.093 153.26 491.986 Q153.26 484.857 151.431 481.315 Q149.626 477.75 145.992 477.75 M145.992 474.046 Q151.802 474.046 154.857 478.653 Q157.936 483.236 157.936 491.986 Q157.936 500.713 154.857 505.319 Q151.802 509.903 145.992 509.903 Q140.181 509.903 137.103 505.319 Q134.047 500.713 134.047 491.986 Q134.047 483.236 137.103 478.653 Q140.181 474.046 145.992 474.046 Z" fill="#000000" fill-rule="nonzero" fill-opacity="1" /><path clip-path="url(#clip530)" d="M95.7836 216.972 L112.103 216.972 L112.103 220.907 L90.1586 220.907 L90.1586 216.972 Q92.8206 214.218 97.4039 209.588 Q102.01 204.935 103.191 203.593 Q105.436 201.069 106.316 199.333 Q107.219 197.574 107.219 195.884 Q107.219 193.13 105.274 191.394 Q103.353 189.657 100.251 189.657 Q98.0521 189.657 95.5984 190.421 Q93.1678 191.185 90.3901 192.736 L90.3901 188.014 Q93.2141 186.88 95.6678 186.301 Q98.1215 185.722 100.159 185.722 Q105.529 185.722 108.723 188.408 Q111.918 191.093 111.918 195.583 Q111.918 197.713 111.108 199.634 Q110.321 201.532 108.214 204.125 Q107.635 204.796 104.534 208.014 Q101.432 211.208 95.7836 216.972 Z" fill="#000000" fill-rule="nonzero" fill-opacity="1" /><path clip-path="url(#clip530)" d="M121.918 215.028 L126.802 215.028 L126.802 220.907 L121.918 220.907 L121.918 215.028 Z" fill="#000000" fill-rule="nonzero" fill-opacity="1" /><path clip-path="url(#clip530)" d="M137.033 186.347 L155.39 186.347 L155.39 190.282 L141.316 190.282 L141.316 198.755 Q142.334 198.407 143.353 198.245 Q144.371 198.06 145.39 198.06 Q151.177 198.06 154.556 201.232 Q157.936 204.403 157.936 209.819 Q157.936 215.398 154.464 218.5 Q150.992 221.579 144.672 221.579 Q142.496 221.579 140.228 221.208 Q137.982 220.838 135.575 220.097 L135.575 215.398 Q137.658 216.532 139.881 217.088 Q142.103 217.643 144.58 217.643 Q148.584 217.643 150.922 215.537 Q153.26 213.431 153.26 209.819 Q153.26 206.208 150.922 204.102 Q148.584 201.995 144.58 201.995 Q142.705 201.995 140.83 202.412 Q138.978 202.829 137.033 203.708 L137.033 186.347 Z" fill="#000000" fill-rule="nonzero" fill-opacity="1" /><polyline clip-path="url(#clip532)" style="stroke:#009af9; stroke-linecap:round; stroke-linejoin:round; stroke-width:4; stroke-opacity:1; fill:none" points="255.035,477.827 362.225,586.826 469.416,614.121 576.607,682.337 683.797,718.178 790.988,774.077 898.179,817.266 1005.37,868.783 1112.56,914.862 1219.75,964.446 1326.94,1011.71 1434.13,1060.48 1541.32,1108.26 1648.51,1156.69 1755.7,1204.7 1862.89,1253 1970.09,1301.11 2077.28,1349.35 2184.47,1397.5 2291.66,1445.72 "/>
<polyline clip-path="url(#clip532)" style="stroke:#e26f46; stroke-linecap:round; stroke-linejoin:round; stroke-width:4; stroke-opacity:1; fill:none" points="255.035,319.244 362.225,536.797 469.416,403.248 576.607,548.716 683.797,452.418 790.988,561.045 898.179,489.205 1005.37,574.422 1112.56,519.962 1219.75,588.875 1326.94,547.314 1434.13,604.27 1541.32,572.568 1648.51,620.468 1755.7,596.453 1862.89,637.339 1970.09,619.406 2077.28,654.768 2184.47,641.702 2291.66,672.655 "/>
<polyline clip-path="url(#clip532)" style="stroke:#3da44d; stroke-linecap:round; stroke-linejoin:round; stroke-width:4; stroke-opacity:1; fill:none" points="255.035,87.9763 362.225,526.776 469.416,169.242 576.607,528.478 683.797,214.004 790.988,529.457 898.179,244.968 1005.37,530.352 1112.56,268.668 1219.75,531.258 1326.94,287.888 1434.13,532.178 1541.32,304.071 1648.51,533.112 1755.7,318.063 1862.89,534.06 1970.09,330.398 2077.28,535.022 2184.47,341.441 2291.66,535.997 "/>
<path clip-path="url(#clip530)" d="M265.897 1438.47 L650.157 1438.47 L650.157 1231.11 L265.897 1231.11  Z" fill="#ffffff" fill-rule="evenodd" fill-opacity="1"/>
<polyline clip-path="url(#clip530)" style="stroke:#000000; stroke-linecap:round; stroke-linejoin:round; stroke-width:4; stroke-opacity:1; fill:none" points="265.897,1438.47 650.157,1438.47 650.157,1231.11 265.897,1231.11 265.897,1438.47 "/>
<polyline clip-path="url(#clip530)" style="stroke:#009af9; stroke-linecap:round; stroke-linejoin:round; stroke-width:4; stroke-opacity:1; fill:none" points="289.884,1282.95 433.805,1282.95 "/>
<path clip-path="url(#clip530)" d="M476.704 1278.24 L476.704 1264.22 L480.963 1264.22 L480.963 1300.23 L476.704 1300.23 L476.704 1296.35 Q475.361 1298.66 473.301 1299.79 Q471.264 1300.91 468.394 1300.91 Q463.695 1300.91 460.732 1297.16 Q457.792 1293.41 457.792 1287.29 Q457.792 1281.18 460.732 1277.43 Q463.695 1273.68 468.394 1273.68 Q471.264 1273.68 473.301 1274.82 Q475.361 1275.93 476.704 1278.24 M462.19 1287.29 Q462.19 1291.99 464.111 1294.68 Q466.056 1297.34 469.435 1297.34 Q472.815 1297.34 474.759 1294.68 Q476.704 1291.99 476.704 1287.29 Q476.704 1282.6 474.759 1279.93 Q472.815 1277.25 469.435 1277.25 Q466.056 1277.25 464.111 1279.93 Q462.19 1282.6 462.19 1287.29 Z" fill="#000000" fill-rule="nonzero" fill-opacity="1" /><path clip-path="url(#clip530)" d="M490.292 1278.71 L519.967 1278.71 L519.967 1282.6 L490.292 1282.6 L490.292 1278.71 M490.292 1288.15 L519.967 1288.15 L519.967 1292.09 L490.292 1292.09 L490.292 1288.15 Z" fill="#000000" fill-rule="nonzero" fill-opacity="1" /><path clip-path="url(#clip530)" d="M540.06 1268.75 Q536.449 1268.75 534.62 1272.32 Q532.815 1275.86 532.815 1282.99 Q532.815 1290.1 534.62 1293.66 Q536.449 1297.2 540.06 1297.2 Q543.694 1297.2 545.5 1293.66 Q547.328 1290.1 547.328 1282.99 Q547.328 1275.86 545.5 1272.32 Q543.694 1268.75 540.06 1268.75 M540.06 1265.05 Q545.87 1265.05 548.926 1269.66 Q552.004 1274.24 552.004 1282.99 Q552.004 1291.72 548.926 1296.32 Q545.87 1300.91 540.06 1300.91 Q534.25 1300.91 531.171 1296.32 Q528.115 1291.72 528.115 1282.99 Q528.115 1274.24 531.171 1269.66 Q534.25 1265.05 540.06 1265.05 Z" fill="#000000" fill-rule="nonzero" fill-opacity="1" /><path clip-path="url(#clip530)" d="M560.222 1294.35 L565.106 1294.35 L565.106 1300.23 L560.222 1300.23 L560.222 1294.35 Z" fill="#000000" fill-rule="nonzero" fill-opacity="1" /><path clip-path="url(#clip530)" d="M575.337 1265.67 L593.694 1265.67 L593.694 1269.61 L579.62 1269.61 L579.62 1278.08 Q580.638 1277.73 581.657 1277.57 Q582.675 1277.39 583.694 1277.39 Q589.481 1277.39 592.86 1280.56 Q596.24 1283.73 596.24 1289.15 Q596.24 1294.73 592.768 1297.83 Q589.296 1300.91 582.976 1300.91 Q580.8 1300.91 578.532 1300.54 Q576.286 1300.16 573.879 1299.42 L573.879 1294.73 Q575.962 1295.86 578.185 1296.41 Q580.407 1296.97 582.884 1296.97 Q586.888 1296.97 589.226 1294.86 Q591.564 1292.76 591.564 1289.15 Q591.564 1285.54 589.226 1283.43 Q586.888 1281.32 582.884 1281.32 Q581.009 1281.32 579.134 1281.74 Q577.282 1282.16 575.337 1283.04 L575.337 1265.67 Z" fill="#000000" fill-rule="nonzero" fill-opacity="1" /><polyline clip-path="url(#clip530)" style="stroke:#e26f46; stroke-linecap:round; stroke-linejoin:round; stroke-width:4; stroke-opacity:1; fill:none" points="289.884,1334.79 433.805,1334.79 "/>
<path clip-path="url(#clip530)" d="M476.704 1330.08 L476.704 1316.06 L480.963 1316.06 L480.963 1352.07 L476.704 1352.07 L476.704 1348.19 Q475.361 1350.5 473.301 1351.63 Q471.264 1352.75 468.394 1352.75 Q463.695 1352.75 460.732 1349 Q457.792 1345.25 457.792 1339.13 Q457.792 1333.02 460.732 1329.27 Q463.695 1325.52 468.394 1325.52 Q471.264 1325.52 473.301 1326.66 Q475.361 1327.77 476.704 1330.08 M462.19 1339.13 Q462.19 1343.83 464.111 1346.52 Q466.056 1349.18 469.435 1349.18 Q472.815 1349.18 474.759 1346.52 Q476.704 1343.83 476.704 1339.13 Q476.704 1334.44 474.759 1331.77 Q472.815 1329.09 469.435 1329.09 Q466.056 1329.09 464.111 1331.77 Q462.19 1334.44 462.19 1339.13 Z" fill="#000000" fill-rule="nonzero" fill-opacity="1" /><path clip-path="url(#clip530)" d="M490.292 1330.55 L519.967 1330.55 L519.967 1334.44 L490.292 1334.44 L490.292 1330.55 M490.292 1339.99 L519.967 1339.99 L519.967 1343.93 L490.292 1343.93 L490.292 1339.99 Z" fill="#000000" fill-rule="nonzero" fill-opacity="1" /><path clip-path="url(#clip530)" d="M540.06 1320.59 Q536.449 1320.59 534.62 1324.16 Q532.815 1327.7 532.815 1334.83 Q532.815 1341.94 534.62 1345.5 Q536.449 1349.04 540.06 1349.04 Q543.694 1349.04 545.5 1345.5 Q547.328 1341.94 547.328 1334.83 Q547.328 1327.7 545.5 1324.16 Q543.694 1320.59 540.06 1320.59 M540.06 1316.89 Q545.87 1316.89 548.926 1321.5 Q552.004 1326.08 552.004 1334.83 Q552.004 1343.56 548.926 1348.16 Q545.87 1352.75 540.06 1352.75 Q534.25 1352.75 531.171 1348.16 Q528.115 1343.56 528.115 1334.83 Q528.115 1326.08 531.171 1321.5 Q534.25 1316.89 540.06 1316.89 Z" fill="#000000" fill-rule="nonzero" fill-opacity="1" /><path clip-path="url(#clip530)" d="M560.222 1346.19 L565.106 1346.19 L565.106 1352.07 L560.222 1352.07 L560.222 1346.19 Z" fill="#000000" fill-rule="nonzero" fill-opacity="1" /><path clip-path="url(#clip530)" d="M576.101 1348.14 L583.74 1348.14 L583.74 1321.77 L575.43 1323.44 L575.43 1319.18 L583.694 1317.51 L588.37 1317.51 L588.37 1348.14 L596.009 1348.14 L596.009 1352.07 L576.101 1352.07 L576.101 1348.14 Z" fill="#000000" fill-rule="nonzero" fill-opacity="1" /><polyline clip-path="url(#clip530)" style="stroke:#3da44d; stroke-linecap:round; stroke-linejoin:round; stroke-width:4; stroke-opacity:1; fill:none" points="289.884,1386.63 433.805,1386.63 "/>
<path clip-path="url(#clip530)" d="M476.704 1381.92 L476.704 1367.9 L480.963 1367.9 L480.963 1403.91 L476.704 1403.91 L476.704 1400.03 Q475.361 1402.34 473.301 1403.47 Q471.264 1404.59 468.394 1404.59 Q463.695 1404.59 460.732 1400.84 Q457.792 1397.09 457.792 1390.97 Q457.792 1384.86 460.732 1381.11 Q463.695 1377.36 468.394 1377.36 Q471.264 1377.36 473.301 1378.5 Q475.361 1379.61 476.704 1381.92 M462.19 1390.97 Q462.19 1395.67 464.111 1398.36 Q466.056 1401.02 469.435 1401.02 Q472.815 1401.02 474.759 1398.36 Q476.704 1395.67 476.704 1390.97 Q476.704 1386.28 474.759 1383.61 Q472.815 1380.93 469.435 1380.93 Q466.056 1380.93 464.111 1383.61 Q462.19 1386.28 462.19 1390.97 Z" fill="#000000" fill-rule="nonzero" fill-opacity="1" /><path clip-path="url(#clip530)" d="M490.292 1382.39 L519.967 1382.39 L519.967 1386.28 L490.292 1386.28 L490.292 1382.39 M490.292 1391.83 L519.967 1391.83 L519.967 1395.77 L490.292 1395.77 L490.292 1391.83 Z" fill="#000000" fill-rule="nonzero" fill-opacity="1" /><path clip-path="url(#clip530)" d="M540.06 1372.43 Q536.449 1372.43 534.62 1376 Q532.815 1379.54 532.815 1386.67 Q532.815 1393.78 534.62 1397.34 Q536.449 1400.88 540.06 1400.88 Q543.694 1400.88 545.5 1397.34 Q547.328 1393.78 547.328 1386.67 Q547.328 1379.54 545.5 1376 Q543.694 1372.43 540.06 1372.43 M540.06 1368.73 Q545.87 1368.73 548.926 1373.34 Q552.004 1377.92 552.004 1386.67 Q552.004 1395.4 548.926 1400 Q545.87 1404.59 540.06 1404.59 Q534.25 1404.59 531.171 1400 Q528.115 1395.4 528.115 1386.67 Q528.115 1377.92 531.171 1373.34 Q534.25 1368.73 540.06 1368.73 Z" fill="#000000" fill-rule="nonzero" fill-opacity="1" /><path clip-path="url(#clip530)" d="M560.222 1398.03 L565.106 1398.03 L565.106 1403.91 L560.222 1403.91 L560.222 1398.03 Z" fill="#000000" fill-rule="nonzero" fill-opacity="1" /><path clip-path="url(#clip530)" d="M585.291 1372.43 Q581.68 1372.43 579.851 1376 Q578.046 1379.54 578.046 1386.67 Q578.046 1393.78 579.851 1397.34 Q581.68 1400.88 585.291 1400.88 Q588.925 1400.88 590.731 1397.34 Q592.56 1393.78 592.56 1386.67 Q592.56 1379.54 590.731 1376 Q588.925 1372.43 585.291 1372.43 M585.291 1368.73 Q591.101 1368.73 594.157 1373.34 Q597.235 1377.92 597.235 1386.67 Q597.235 1395.4 594.157 1400 Q591.101 1404.59 585.291 1404.59 Q579.481 1404.59 576.402 1400 Q573.347 1395.4 573.347 1386.67 Q573.347 1377.92 576.402 1373.34 Q579.481 1368.73 585.291 1368.73 Z" fill="#000000" fill-rule="nonzero" fill-opacity="1" /><path clip-path="url(#clip530)" d="M606.263 1399.98 L613.902 1399.98 L613.902 1373.61 L605.592 1375.28 L605.592 1371.02 L613.856 1369.35 L618.532 1369.35 L618.532 1399.98 L626.17 1399.98 L626.17 1403.91 L606.263 1403.91 L606.263 1399.98 Z" fill="#000000" fill-rule="nonzero" fill-opacity="1" /></svg>
